REM DIRINDEX 1\2,1\3,1\4,1\5
REM DIRNAME folder01,folder02,folder03,folder04,folder05
TITLE ""
FILE "147.mp3" MP3
  TRACK 01 AUDIO
    TITLE "0:"
    INDEX 01 00:00:00
  TRACK 02 AUDIO
    TITLE "2:cjc046_4021"
    INDEX 01 00:00:09
  TRACK 03 AUDIO
    TITLE "0:"
    INDEX 01 00:01:13
  TRACK 04 AUDIO
    TITLE "3:cjc046_4022"
    INDEX 01 00:01:40
  TRACK 05 AUDIO
    TITLE "0:"
    INDEX 01 00:03:72
  TRACK 06 AUDIO
    TITLE "4:cjc046_4023"
    INDEX 01 00:04:11
  TRACK 07 AUDIO
    TITLE "0:"
    INDEX 01 00:05:18
  TRACK 08 AUDIO
    TITLE "2:cjc046_4024"
    INDEX 01 00:06:24
  TRACK 09 AUDIO
    TITLE "0:"
    INDEX 01 00:07:27
  TRACK 10 AUDIO
    TITLE "3:cjc046_4025"
    INDEX 01 00:07:49
  TRACK 11 AUDIO
    TITLE "0:"
    INDEX 01 00:08:66
  TRACK 12 AUDIO
    TITLE "4:cjc046_4026"
    INDEX 01 00:09:04
  TRACK 13 AUDIO
    TITLE "0:"
    INDEX 01 00:10:06
  TRACK 14 AUDIO
    TITLE "2:cjc046_4027"
    INDEX 01 00:11:17
  TRACK 15 AUDIO
    TITLE "0:"
    INDEX 01 00:12:38
  TRACK 16 AUDIO
    TITLE "3:cjc046_4028"
    INDEX 01 00:12:54
  TRACK 17 AUDIO
    TITLE "0:"
    INDEX 01 00:14:25
  TRACK 18 AUDIO
    TITLE "4:cjc046_4029"
    INDEX 01 00:14:43
  TRACK 19 AUDIO
    TITLE "0:"
    INDEX 01 00:15:64
  TRACK 20 AUDIO
    TITLE "2:cjc046_4030"
    INDEX 01 00:17:00
  TRACK 21 AUDIO
    TITLE "0:"
    INDEX 01 00:18:09
  TRACK 22 AUDIO
    TITLE "3:cjc046_4031"
    INDEX 01 00:18:27
  TRACK 23 AUDIO
    TITLE "0:"
    INDEX 01 00:19:38
  TRACK 24 AUDIO
    TITLE "4:cjc046_4032"
    INDEX 01 00:19:52
  TRACK 25 AUDIO
    TITLE "0:"
    INDEX 01 00:20:63
  TRACK 26 AUDIO
    TITLE "2:cjc046_4033"
    INDEX 01 00:21:72
  TRACK 27 AUDIO
    TITLE "0:"
    INDEX 01 00:23:14
  TRACK 28 AUDIO
    TITLE "3:cjc046_4034"
    INDEX 01 00:23:30
  TRACK 29 AUDIO
    TITLE "0:"
    INDEX 01 00:24:47
  TRACK 30 AUDIO
    TITLE "4:cjc046_4035"
    INDEX 01 00:24:67
  TRACK 31 AUDIO
    TITLE "0:"
    INDEX 01 00:26:07
  TRACK 32 AUDIO
    TITLE "2:cjc046_4036"
    INDEX 01 00:27:16
  TRACK 33 AUDIO
    TITLE "0:"
    INDEX 01 00:28:39
  TRACK 34 AUDIO
    TITLE "3:cjc046_4037"
    INDEX 01 00:28:59
  TRACK 35 AUDIO
    TITLE "0:"
    INDEX 01 00:30:10
  TRACK 36 AUDIO
    TITLE "4:cjc046_4038"
    INDEX 01 00:30:28
  TRACK 37 AUDIO
    TITLE "0:"
    INDEX 01 00:31:51
  TRACK 38 AUDIO
    TITLE "2:cjc046_4039"
    INDEX 01 00:32:60
  TRACK 39 AUDIO
    TITLE "0:"
    INDEX 01 00:33:64
  TRACK 40 AUDIO
    TITLE "3:cjc046_4040"
    INDEX 01 00:34:14
  TRACK 41 AUDIO
    TITLE "0:"
    INDEX 01 00:35:39
  TRACK 42 AUDIO
    TITLE "4:cjc046_4041"
    INDEX 01 00:35:55
  TRACK 43 AUDIO
    TITLE "0:"
    INDEX 01 00:36:60
  TRACK 44 AUDIO
    TITLE "2:cjc046_4042"
    INDEX 01 00:37:69
  TRACK 45 AUDIO
    TITLE "0:"
    INDEX 01 00:39:00
  TRACK 46 AUDIO
    TITLE "3:cjc046_4043"
    INDEX 01 00:39:19
  TRACK 47 AUDIO
    TITLE "0:"
    INDEX 01 00:40:48
  TRACK 48 AUDIO
    TITLE "4:cjc046_4044"
    INDEX 01 00:40:64
  TRACK 49 AUDIO
    TITLE "0:"
    INDEX 01 00:41:71
  TRACK 50 AUDIO
    TITLE "2:cjc046_4045"
    INDEX 01 00:43:03
  TRACK 51 AUDIO
    TITLE "0:"
    INDEX 01 00:44:11
  TRACK 52 AUDIO
    TITLE "3:cjc046_4046"
    INDEX 01 00:44:30
  TRACK 53 AUDIO
    TITLE "0:"
    INDEX 01 00:45:59
  TRACK 54 AUDIO
    TITLE "4:cjc046_4047"
    INDEX 01 00:46:00
  TRACK 55 AUDIO
    TITLE "0:"
    INDEX 01 00:47:07
  TRACK 56 AUDIO
    TITLE "2:cjc046_4048"
    INDEX 01 00:48:18
  TRACK 57 AUDIO
    TITLE "0:"
    INDEX 01 00:49:21
  TRACK 58 AUDIO
    TITLE "3:cjc046_4049"
    INDEX 01 00:49:45
  TRACK 59 AUDIO
    TITLE "0:"
    INDEX 01 00:50:56
  TRACK 60 AUDIO
    TITLE "4:cjc046_4050"
    INDEX 01 00:50:62
  TRACK 61 AUDIO
    TITLE "0:"
    INDEX 01 00:51:67
  TRACK 62 AUDIO
    TITLE "2:cjc046_4051"
    INDEX 01 00:53:02
  TRACK 63 AUDIO
    TITLE "0:"
    INDEX 01 00:54:09
  TRACK 64 AUDIO
    TITLE "3:cjc046_4052"
    INDEX 01 00:54:21
  TRACK 65 AUDIO
    TITLE "0:"
    INDEX 01 00:55:32
  TRACK 66 AUDIO
    TITLE "4:cjc046_4053"
    INDEX 01 00:55:48
  TRACK 67 AUDIO
    TITLE "0:"
    INDEX 01 00:56:51
  TRACK 68 AUDIO
    TITLE "2:cjc046_4054"
    INDEX 01 00:57:60
  TRACK 69 AUDIO
    TITLE "0:"
    INDEX 01 00:59:18
  TRACK 70 AUDIO
    TITLE "3:cjc046_4055"
    INDEX 01 00:59:38
  TRACK 71 AUDIO
    TITLE "0:"
    INDEX 01 01:00:74
  TRACK 72 AUDIO
    TITLE "4:cjc046_4056"
    INDEX 01 01:01:11
  TRACK 73 AUDIO
    TITLE "0:"
    INDEX 01 01:02:42
  TRACK 74 AUDIO
    TITLE "2:cjc046_4057"
    INDEX 01 01:03:53
  TRACK 75 AUDIO
    TITLE "0:"
    INDEX 01 01:05:05
  TRACK 76 AUDIO
    TITLE "3:cjc046_4058"
    INDEX 01 01:05:26
  TRACK 77 AUDIO
    TITLE "0:"
    INDEX 01 01:06:47
  TRACK 78 AUDIO
    TITLE "4:cjc046_4059"
    INDEX 01 01:06:65
  TRACK 79 AUDIO
    TITLE "0:"
    INDEX 01 01:08:17
  TRACK 80 AUDIO
    TITLE "2:cjc046_4060"
    INDEX 01 01:09:26
  TRACK 81 AUDIO
    TITLE "0:"
    INDEX 01 01:10:49
  TRACK 82 AUDIO
    TITLE "3:cjc046_4061"
    INDEX 01 01:10:63
  TRACK 83 AUDIO
    TITLE "0:"
    INDEX 01 01:12:73
  TRACK 84 AUDIO
    TITLE "4:cjc046_4062"
    INDEX 01 01:13:08
  TRACK 85 AUDIO
    TITLE "0:"
    INDEX 01 01:14:33
  TRACK 86 AUDIO
    TITLE "2:cjc046_4063"
    INDEX 01 01:15:42
  TRACK 87 AUDIO
    TITLE "0:"
    INDEX 01 01:16:54
  TRACK 88 AUDIO
    TITLE "3:cjc046_4064"
    INDEX 01 01:16:73
  TRACK 89 AUDIO
    TITLE "0:"
    INDEX 01 01:18:13
  TRACK 90 AUDIO
    TITLE "4:cjc046_4065"
    INDEX 01 01:18:33
  TRACK 91 AUDIO
    TITLE "0:"
    INDEX 01 01:19:46
